<svg xmlns="http://www.w3.org/2000/svg" fill="currentColor" viewBox="0 0 40 40">
    <path d="M27.6007,19.8536c1.26-.3274,2.381-1.2698,2.381-3.1647c0-3.1547-2.6786-3.8889-6.1111-3.8889h-13.6706v14.2064h5.7539v-4.8214h6.8254c1.0516,0,1.6667.4166,1.6667,1.4484v3.373h5.754v-3.5516c0-1.9345-1.0913-3.1548-2.5993-3.6012Zm-4.7222-1.498h-6.9246v-1.3889h6.9246c.754,0,1.2103.0992,1.2103.6945c0,.5952-.4563.6944-1.2103.6944Z" transform="matrix(1.98 0 0 1.98-19.996-19.505136)"/>
</svg>
<svg xmlns="http://www.w3.org/2000/svg" fill="currentColor" viewBox="0 0 28 28">
<path d="M26.109 8.844c0 0.391-0.156 0.781-0.438 1.062l-13.438 13.438c-0.281 0.281-0.672 0.438-1.062 0.438s-0.781-0.156-1.062-0.438l-7.781-7.781c-0.281-0.281-0.438-0.672-0.438-1.062s0.156-0.781 0.438-1.062l2.125-2.125c0.281-0.281 0.672-0.438 1.062-0.438s0.781 0.156 1.062 0.438l4.594 4.609 10.25-10.266c0.281-0.281 0.672-0.438 1.062-0.438s0.781 0.156 1.062 0.438l2.125 2.125c0.281 0.281 0.438 0.672 0.438 1.062z"></path>
</svg>
