<svg aria-hidden="true" style="position: absolute; width: 0; height: 0; overflow: hidden;" version="1.1" xmlns="http://www.w3.org/2000/svg" xmlns:xlink="http://www.w3.org/1999/xlink">
<defs>
<symbol id="icon-star" viewBox="0 0 26 28">
<path d="M26 10.109c0 0.281-0.203 0.547-0.406 0.75l-5.672 5.531 1.344 7.812c0.016 0.109 0.016 0.203 0.016 0.313 0 0.406-0.187 0.781-0.641 0.781-0.219 0-0.438-0.078-0.625-0.187l-7.016-3.687-7.016 3.687c-0.203 0.109-0.406 0.187-0.625 0.187-0.453 0-0.656-0.375-0.656-0.781 0-0.109 0.016-0.203 0.031-0.313l1.344-7.812-5.688-5.531c-0.187-0.203-0.391-0.469-0.391-0.75 0-0.469 0.484-0.656 0.875-0.719l7.844-1.141 3.516-7.109c0.141-0.297 0.406-0.641 0.766-0.641s0.625 0.344 0.766 0.641l3.516 7.109 7.844 1.141c0.375 0.063 0.875 0.25 0.875 0.719z"></path>
</symbol>
<symbol id="icon-download" viewBox="0 0 26 28">
<path d="M20 21c0-0.547-0.453-1-1-1s-1 0.453-1 1 0.453 1 1 1 1-0.453 1-1zM24 21c0-0.547-0.453-1-1-1s-1 0.453-1 1 0.453 1 1 1 1-0.453 1-1zM26 17.5v5c0 0.828-0.672 1.5-1.5 1.5h-23c-0.828 0-1.5-0.672-1.5-1.5v-5c0-0.828 0.672-1.5 1.5-1.5h7.266l2.109 2.125c0.578 0.562 1.328 0.875 2.125 0.875s1.547-0.313 2.125-0.875l2.125-2.125h7.25c0.828 0 1.5 0.672 1.5 1.5zM20.922 8.609c0.156 0.375 0.078 0.812-0.219 1.094l-7 7c-0.187 0.203-0.453 0.297-0.703 0.297s-0.516-0.094-0.703-0.297l-7-7c-0.297-0.281-0.375-0.719-0.219-1.094 0.156-0.359 0.516-0.609 0.922-0.609h4v-7c0-0.547 0.453-1 1-1h4c0.547 0 1 0.453 1 1v7h4c0.406 0 0.766 0.25 0.922 0.609z"></path>
</symbol>
<symbol id="icon-check" viewBox="0 0 28 28">
<path d="M26.109 8.844c0 0.391-0.156 0.781-0.438 1.062l-13.438 13.438c-0.281 0.281-0.672 0.438-1.062 0.438s-0.781-0.156-1.062-0.438l-7.781-7.781c-0.281-0.281-0.438-0.672-0.438-1.062s0.156-0.781 0.438-1.062l2.125-2.125c0.281-0.281 0.672-0.438 1.062-0.438s0.781 0.156 1.062 0.438l4.594 4.609 10.25-10.266c0.281-0.281 0.672-0.438 1.062-0.438s0.781 0.156 1.062 0.438l2.125 2.125c0.281 0.281 0.438 0.672 0.438 1.062z"></path>
</symbol>
<symbol id="icon-instagram" viewBox="0 0 24 28">
<path d="M16 14c0-2.203-1.797-4-4-4s-4 1.797-4 4 1.797 4 4 4 4-1.797 4-4zM18.156 14c0 3.406-2.75 6.156-6.156 6.156s-6.156-2.75-6.156-6.156 2.75-6.156 6.156-6.156 6.156 2.75 6.156 6.156zM19.844 7.594c0 0.797-0.641 1.437-1.437 1.437s-1.437-0.641-1.437-1.437 0.641-1.437 1.437-1.437 1.437 0.641 1.437 1.437zM12 4.156c-1.75 0-5.5-0.141-7.078 0.484-0.547 0.219-0.953 0.484-1.375 0.906s-0.688 0.828-0.906 1.375c-0.625 1.578-0.484 5.328-0.484 7.078s-0.141 5.5 0.484 7.078c0.219 0.547 0.484 0.953 0.906 1.375s0.828 0.688 1.375 0.906c1.578 0.625 5.328 0.484 7.078 0.484s5.5 0.141 7.078-0.484c0.547-0.219 0.953-0.484 1.375-0.906s0.688-0.828 0.906-1.375c0.625-1.578 0.484-5.328 0.484-7.078s0.141-5.5-0.484-7.078c-0.219-0.547-0.484-0.953-0.906-1.375s-0.828-0.688-1.375-0.906c-1.578-0.625-5.328-0.484-7.078-0.484zM24 14c0 1.656 0.016 3.297-0.078 4.953-0.094 1.922-0.531 3.625-1.937 5.031s-3.109 1.844-5.031 1.937c-1.656 0.094-3.297 0.078-4.953 0.078s-3.297 0.016-4.953-0.078c-1.922-0.094-3.625-0.531-5.031-1.937s-1.844-3.109-1.937-5.031c-0.094-1.656-0.078-3.297-0.078-4.953s-0.016-3.297 0.078-4.953c0.094-1.922 0.531-3.625 1.937-5.031s3.109-1.844 5.031-1.937c1.656-0.094 3.297-0.078 4.953-0.078s3.297-0.016 4.953 0.078c1.922 0.094 3.625 0.531 5.031 1.937s1.844 3.109 1.937 5.031c0.094 1.656 0.078 3.297 0.078 4.953z"></path>
</symbol>
<symbol id="icon-dribbble" viewBox="0 0 24 28">
<path d="M16 23.438c-0.156-0.906-0.75-4.031-2.188-7.781-0.016 0-0.047 0.016-0.063 0.016 0 0-6.078 2.125-8.047 6.406-0.094-0.078-0.234-0.172-0.234-0.172 1.781 1.453 4.047 2.344 6.531 2.344 1.422 0 2.766-0.297 4-0.812zM13.109 13.953c-0.25-0.578-0.531-1.156-0.828-1.734-5.281 1.578-10.344 1.453-10.516 1.453-0.016 0.109-0.016 0.219-0.016 0.328 0 2.625 1 5.031 2.625 6.844v0c2.797-4.984 8.328-6.766 8.328-6.766 0.141-0.047 0.281-0.078 0.406-0.125zM11.438 10.641c-1.781-3.156-3.672-5.719-3.813-5.906-2.859 1.344-4.984 3.984-5.656 7.156 0.266 0 4.547 0.047 9.469-1.25zM22.125 15.625c-0.219-0.063-3.078-0.969-6.391-0.453 1.344 3.703 1.891 6.719 2 7.328 2.297-1.547 3.922-4.016 4.391-6.875zM9.547 4.047c-0.016 0-0.016 0-0.031 0.016 0 0 0.016-0.016 0.031-0.016zM18.766 6.312c-1.797-1.594-4.172-2.562-6.766-2.562-0.828 0-1.641 0.109-2.422 0.297 0.156 0.203 2.094 2.75 3.844 5.969 3.859-1.437 5.313-3.656 5.344-3.703zM22.25 13.891c-0.031-2.422-0.891-4.656-2.328-6.406-0.031 0.031-1.672 2.406-5.719 4.062 0.234 0.484 0.469 0.984 0.688 1.484 0.078 0.172 0.141 0.359 0.219 0.531 3.531-0.453 7.016 0.313 7.141 0.328zM24 14c0 6.625-5.375 12-12 12s-12-5.375-12-12 5.375-12 12-12 12 5.375 12 12z"></path>
</symbol>
<symbol id="icon-twitter" viewBox="0 0 26 28">
<path d="M25.312 6.375c-0.688 1-1.547 1.891-2.531 2.609 0.016 0.219 0.016 0.438 0.016 0.656 0 6.672-5.078 14.359-14.359 14.359-2.859 0-5.516-0.828-7.75-2.266 0.406 0.047 0.797 0.063 1.219 0.063 2.359 0 4.531-0.797 6.266-2.156-2.219-0.047-4.078-1.5-4.719-3.5 0.313 0.047 0.625 0.078 0.953 0.078 0.453 0 0.906-0.063 1.328-0.172-2.312-0.469-4.047-2.5-4.047-4.953v-0.063c0.672 0.375 1.453 0.609 2.281 0.641-1.359-0.906-2.25-2.453-2.25-4.203 0-0.938 0.25-1.797 0.688-2.547 2.484 3.062 6.219 5.063 10.406 5.281-0.078-0.375-0.125-0.766-0.125-1.156 0-2.781 2.25-5.047 5.047-5.047 1.453 0 2.766 0.609 3.687 1.594 1.141-0.219 2.234-0.641 3.203-1.219-0.375 1.172-1.172 2.156-2.219 2.781 1.016-0.109 2-0.391 2.906-0.781z"></path>
</symbol>
<symbol id="icon-github" viewBox="0 0 24 28">
<path d="M12 2c6.625 0 12 5.375 12 12 0 5.297-3.437 9.797-8.203 11.391-0.609 0.109-0.828-0.266-0.828-0.578 0-0.391 0.016-1.687 0.016-3.297 0-1.125-0.375-1.844-0.812-2.219 2.672-0.297 5.484-1.313 5.484-5.922 0-1.313-0.469-2.375-1.234-3.219 0.125-0.313 0.531-1.531-0.125-3.187-1-0.313-3.297 1.234-3.297 1.234-0.953-0.266-1.984-0.406-3-0.406s-2.047 0.141-3 0.406c0 0-2.297-1.547-3.297-1.234-0.656 1.656-0.25 2.875-0.125 3.187-0.766 0.844-1.234 1.906-1.234 3.219 0 4.594 2.797 5.625 5.469 5.922-0.344 0.313-0.656 0.844-0.766 1.609-0.688 0.313-2.438 0.844-3.484-1-0.656-1.141-1.844-1.234-1.844-1.234-1.172-0.016-0.078 0.734-0.078 0.734 0.781 0.359 1.328 1.75 1.328 1.75 0.703 2.141 4.047 1.422 4.047 1.422 0 1 0.016 1.937 0.016 2.234 0 0.313-0.219 0.688-0.828 0.578-4.766-1.594-8.203-6.094-8.203-11.391 0-6.625 5.375-12 12-12zM4.547 19.234c0.031-0.063-0.016-0.141-0.109-0.187-0.094-0.031-0.172-0.016-0.203 0.031-0.031 0.063 0.016 0.141 0.109 0.187 0.078 0.047 0.172 0.031 0.203-0.031zM5.031 19.766c0.063-0.047 0.047-0.156-0.031-0.25-0.078-0.078-0.187-0.109-0.25-0.047-0.063 0.047-0.047 0.156 0.031 0.25 0.078 0.078 0.187 0.109 0.25 0.047zM5.5 20.469c0.078-0.063 0.078-0.187 0-0.297-0.063-0.109-0.187-0.156-0.266-0.094-0.078 0.047-0.078 0.172 0 0.281s0.203 0.156 0.266 0.109zM6.156 21.125c0.063-0.063 0.031-0.203-0.063-0.297-0.109-0.109-0.25-0.125-0.313-0.047-0.078 0.063-0.047 0.203 0.063 0.297 0.109 0.109 0.25 0.125 0.313 0.047zM7.047 21.516c0.031-0.094-0.063-0.203-0.203-0.25-0.125-0.031-0.266 0.016-0.297 0.109s0.063 0.203 0.203 0.234c0.125 0.047 0.266 0 0.297-0.094zM8.031 21.594c0-0.109-0.125-0.187-0.266-0.172-0.141 0-0.25 0.078-0.25 0.172 0 0.109 0.109 0.187 0.266 0.172 0.141 0 0.25-0.078 0.25-0.172zM8.937 21.438c-0.016-0.094-0.141-0.156-0.281-0.141-0.141 0.031-0.234 0.125-0.219 0.234 0.016 0.094 0.141 0.156 0.281 0.125s0.234-0.125 0.219-0.219z"></path>
</symbol>
<symbol id="icon-linkedin" viewBox="0 0 24 28">
<path d="M5.453 9.766v15.484h-5.156v-15.484h5.156zM5.781 4.984c0.016 1.484-1.109 2.672-2.906 2.672v0h-0.031c-1.734 0-2.844-1.188-2.844-2.672 0-1.516 1.156-2.672 2.906-2.672 1.766 0 2.859 1.156 2.875 2.672zM24 16.375v8.875h-5.141v-8.281c0-2.078-0.75-3.5-2.609-3.5-1.422 0-2.266 0.953-2.641 1.875-0.125 0.344-0.172 0.797-0.172 1.266v8.641h-5.141c0.063-14.031 0-15.484 0-15.484h5.141v2.25h-0.031c0.672-1.062 1.891-2.609 4.672-2.609 3.391 0 5.922 2.219 5.922 6.969z"></path>
</symbol>
<symbol id="icon-keyboard_arrow_right" viewBox="0 0 24 24">
<path d="M8.578 16.594l4.594-4.594-4.594-4.594 1.406-1.406 6 6-6 6z"></path>
</symbol>
</defs>
</svg>
